# xmcd
#
# Track frame offsets: 
#        150
#        15838
#        38048
#        54521
#        70675
#        93828
#        112936
#        136600
#        181725
#        196666
#        221661
#        242550
#        260234
#        286905
#        300115
#        318003
#        336851
#
# Disc length: 4796 seconds
#
# Revision: 0
# Processed by: cddbd v1.5.2PL0 Copyright (c) Steve Scherf et al.
# Submitted via: ExactAudioCopy v1.3
#
DISCID=d112ba11
DTITLE=Various Artist - Akella Presents - vol. 148 - Black Pure Blues
DTITLE=CD2
DYEAR=2018
DGENRE=Blues
TTITLE0=Wallace Johnson - Better Weather Next Time
TTITLE1=The King Brothers - Build a Fire
TTITLE2=Little Al Thomas - Wonder What You Think
TTITLE3=Troy Turner - Not Ready
TTITLE4=Chris Beard - House of Shame
TTITLE5=James Peterson - The Bottom Line
TTITLE6=Big Al Carson - Sunday Funnies
TTITLE7=Robert Ward - Whatever I Receive
TTITLE8=Willie Kent - Something New
TTITLE9=Clarence 'Gatemouth' Brown - Someday My Luck Will Change
TTITLE10=Tail Dragger - Be Careful
TTITLE11=Bill Magee Blues Band - Oh, Mary Anne
TTITLE12=Lurrie Bell - Reconsider Baby
TTITLE13=Big Jack Johnson - It's The Fourth Of July
TTITLE14=Mel Brown - Get Out of My Life, Woman
TTITLE15=Johnny Jenkins - Rock Bottom Blues
TTITLE16=Roy Gaines - Dream Girl
EXTD=
EXTT0=
EXTT1=
EXTT2=
EXTT3=
EXTT4=
EXTT5=
EXTT6=
EXTT7=
EXTT8=
EXTT9=
EXTT10=
EXTT11=
EXTT12=
EXTT13=
EXTT14=
EXTT15=
EXTT16=
PLAYORDER=
